<svg width="64" height="64" viewBox="0 0 64 64" fill="none" xmlns="http://www.w3.org/2000/svg">
<rect width="64" height="64" rx="4" fill="#F4F3F1" fill-opacity="0.94"/>
<path fill-rule="evenodd" clip-rule="evenodd" d="M29.5046 16C24.534 16 20.5046 20.0294 20.5046 25V26.6166H20.0008C17.5653 26.6166 15.6951 28.7747 16.0414 31.1854L17.7808 43.2927C18.0637 45.2619 19.7508 46.7239 21.7402 46.7239H42.2507C44.2401 46.7239 45.9271 45.2619 46.21 43.2927L47.9495 31.1854C48.2958 28.7747 46.4256 26.6166 43.9901 26.6166H43.4862V25C43.4862 20.0294 39.4567 16 34.4862 16H29.5046ZM41.4862 26.6166V25C41.4862 21.134 38.3522 18 34.4862 18H29.5046C25.6386 18 22.5046 21.134 22.5046 25V26.6166H41.4862ZM20.0008 28.6166H43.9901C45.2078 28.6166 46.143 29.6956 45.9698 30.901L44.2304 43.0083C44.0889 43.9929 43.2454 44.7239 42.2507 44.7239H21.7402C20.7455 44.7239 19.902 43.9929 19.7605 43.0083L18.0211 30.901C17.8479 29.6956 18.783 28.6166 20.0008 28.6166Z" fill="#605858"/>
</svg>
